<?xml version="1.0" encoding="UTF-8" standalone="no"?>
<!-- Created with Inkscape (http://www.inkscape.org/) -->

<svg
   width="3.6405671cm"
   height="1.1469826cm"
   viewBox="0 0 36.405671 11.469826"
   version="1.1"
   id="svg21"
   xml:space="preserve"
   xmlns:xlink="http://www.w3.org/1999/xlink"
   xmlns="http://www.w3.org/2000/svg"
   xmlns:svg="http://www.w3.org/2000/svg"><defs
     id="defs18"><linearGradient
       id="linearGradient6178"><stop
         style="stop-color:#238cb2;stop-opacity:1;"
         offset="0"
         id="stop6174" /><stop
         style="stop-color:#0e6887;stop-opacity:1;"
         offset="1"
         id="stop6176" /></linearGradient><linearGradient
       id="linearGradient17478"><stop
         style="stop-color:#1e89aa;stop-opacity:1;"
         offset="0"
         id="stop17474" /><stop
         style="stop-color:#08607c;stop-opacity:1;"
         offset="1"
         id="stop17476" /></linearGradient><linearGradient
       xlink:href="#linearGradient17478"
       id="linearGradient17480-0"
       x1="77.937965"
       y1="128.93855"
       x2="98.420181"
       y2="128.93855"
       gradientUnits="userSpaceOnUse" /><linearGradient
       xlink:href="#linearGradient6178"
       id="linearGradient1766"
       gradientUnits="userSpaceOnUse"
       gradientTransform="matrix(2.5776937,0,0,2.5776937,-64.734356,-154.53657)"
       x1="77.937965"
       y1="128.93855"
       x2="98.420181"
       y2="128.93855" /></defs><g
     id="layer4-3-9"
     transform="matrix(0.18830544,0,0,0.18830544,-25.64077,-28.068977)"
     style="fill:url(#linearGradient17480-0);fill-opacity:1"><path
       id="path17486-7-5-2"
       style="color:#000000;opacity:1;fill:url(#linearGradient1766);fill-opacity:1;stroke:none;stroke-width:4.14061;stroke-linecap:round;stroke-linejoin:round;-inkscape-stroke:none;paint-order:markers fill stroke"
       d="m 162.56495,149.0609 a 2.0705076,2.0705076 0 0 0 -1.55585,0.70466 c -2.48594,2.82631 -5.47955,5.59988 -8.94611,7.00399 -3.46651,1.40403 -7.39841,1.61967 -12.556,-0.93646 a 2.0705076,2.0705076 0 0 0 -2.98647,1.76632 c -0.35468,8.63947 -2.33675,25.11155 9.01673,38.24744 5.08257,5.88056 11.15824,8.47983 16.23247,10.58854 a 2.0705076,2.0705076 0 0 0 1.59047,0 c 5.07428,-2.10874 11.14852,-4.70795 16.23118,-10.58854 11.35342,-13.13589 9.37138,-29.60803 9.01669,-38.24744 a 2.0705076,2.0705076 0 0 0 -2.99046,-1.76632 c -5.15766,2.55613 -9.08941,2.34049 -12.55601,0.93646 -3.46655,-1.40411 -6.4548,-4.17768 -8.9408,-7.00399 a 2.0705076,2.0705076 0 0 0 -1.55584,-0.70466 z m 6.37526,18.67416 a 2.1193083,2.1193083 0 0 1 1.25743,0.33166 l 12.47078,7.97505 a 2.1193083,2.1193083 0 0 1 -0.005,3.57393 l -12.49605,7.94439 a 2.1190963,2.1190963 0 0 1 -2.92521,-0.64869 2.1190963,2.1190963 0 0 1 0.65005,-2.92523 l 9.69605,-6.16341 -8.08026,-5.16974 -11.79141,14.48882 a 2.1193083,2.1193083 0 0 1 -2.78401,0.44891 l -12.47606,-7.98039 a 2.1193083,2.1193083 0 0 1 0.005,-3.56859 l 12.49603,-7.94975 a 2.1190963,2.1190963 0 0 1 2.92521,0.65405 2.1190963,2.1190963 0 0 1 -0.65004,2.92522 l -9.69072,6.16212 8.08027,5.17105 11.7914,-14.49548 a 2.1193083,2.1193083 0 0 1 1.52652,-0.77392 z" /><g
       aria-label="Digiton"
       id="text24511-2"
       style="font-weight:500;font-size:42.1981px;font-family:Mukta;-inkscape-font-specification:'Mukta Medium';opacity:1;fill:#0e6887;stroke-width:0.58809;stroke-opacity:0.908562;paint-order:stroke markers fill"><path
         d="m 210.71154,161.2015 q 2.91167,0 5.35916,0.80176 2.44749,0.80176 4.21981,2.40529 1.77232,1.56133 2.74288,3.96662 1.01275,2.3631 1.01275,5.52796 0,3.75563 -1.18155,6.41411 -1.18154,2.61628 -3.20705,4.3042 -1.98331,1.64573 -4.68399,2.40529 -2.65848,0.75957 -5.61235,0.75957 h -7.51126 v -26.5848 z m -4.3464,22.95576 h 2.61628 q 1.94111,0 3.75563,-0.42198 1.85672,-0.46418 3.29145,-1.60352 1.43474,-1.18155 2.2787,-3.16486 0.88616,-1.98331 0.88616,-5.06377 0,-4.38861 -2.53189,-6.7095 -2.48969,-2.3631 -6.7095,-2.3631 h -3.58683 z"
         id="path3038" /><path
         d="m 229.10991,187.7863 v -19.9175 h 4.3464 v 19.9175 z m 2.1943,-24.85468 q -1.13935,0 -1.81452,-0.67517 -0.67517,-0.71737 -0.67517,-1.77232 0,-1.05495 0.67517,-1.73012 0.67517,-0.71737 1.81452,-0.71737 1.09715,0 1.77232,0.71737 0.71737,0.67517 0.71737,1.73012 0,1.09715 -0.71737,1.77232 -0.67517,0.67517 -1.77232,0.67517 z"
         id="path3040" /><path
         d="m 239.1952,174.5361 q 0,-1.64573 0.59077,-2.95387 0.63297,-1.30814 1.73012,-2.1943 1.09715,-0.92836 2.61628,-1.39254 1.51914,-0.46418 3.29146,-0.46418 1.30814,0 2.65848,0.33759 h 8.56621 v 2.99606 h -1.47693 l -3.12266,-0.42198 q 0.71737,0.80177 1.13935,1.85672 0.42198,1.05495 0.42198,2.1943 0,1.64572 -0.59077,2.95387 -0.59078,1.26594 -1.68793,2.1943 -1.05495,0.88616 -2.57408,1.35034 -1.51913,0.46418 -3.33365,0.46418 -0.59078,0 -1.13935,-0.0422 -0.50638,-0.0422 -1.01276,-0.1266 -0.80176,0.33759 -1.13935,0.80177 -0.33758,0.46418 -0.33758,1.01275 0,0.84396 0.59077,1.18155 0.59078,0.33758 1.68793,0.33758 h 5.02157 q 3.29145,0 5.10597,1.51913 1.85672,1.47694 1.85672,4.26201 0,1.64573 -0.75957,2.95387 -0.71737,1.35034 -2.1099,2.2787 -1.35034,0.97055 -3.29145,1.47693 -1.94112,0.50638 -4.34641,0.50638 -4.4308,0 -7.00488,-1.56133 -2.57409,-1.56133 -2.57409,-4.59959 0,-1.47694 0.97056,-2.53189 0.97055,-1.05495 2.57408,-1.64573 -0.75956,-0.50637 -1.22374,-1.18154 -0.46418,-0.71737 -0.46418,-1.85672 0,-1.35034 0.80176,-2.2787 0.80177,-0.97055 2.10991,-1.51913 -1.51913,-0.71737 -2.53189,-2.1521 -1.01275,-1.47694 -1.01275,-3.75563 z m 4.81058,13.46119 q -1.94111,0.92836 -1.94111,2.78508 0,1.68792 1.35034,2.57408 1.39253,0.88616 4.3042,0.88616 1.64573,0 2.78508,-0.33758 1.13935,-0.29539 1.85671,-0.80177 0.75957,-0.50638 1.09716,-1.13935 0.33758,-0.63297 0.33758,-1.30814 0,-1.60353 -1.09715,-2.1521 -1.05495,-0.50638 -2.82727,-0.50638 z m 7.25807,-13.41899 q 0,-2.02551 -1.05495,-2.99607 -1.05495,-1.01275 -2.78507,-1.01275 -1.77232,0 -2.82728,0.97055 -1.01275,0.97056 -1.01275,2.91167 0,2.02551 1.05495,2.99607 1.05495,0.97055 2.78508,0.97055 1.77232,0 2.78507,-0.97055 1.05495,-0.97056 1.05495,-2.86947 z"
         id="path3042" /><path
         d="m 263.12149,187.7863 v -19.9175 h 4.3464 v 19.9175 z m 2.1943,-24.85468 q -1.13935,0 -1.81452,-0.67517 -0.67517,-0.71737 -0.67517,-1.77232 0,-1.05495 0.67517,-1.73012 0.67517,-0.71737 1.81452,-0.71737 1.09715,0 1.77232,0.71737 0.71737,0.67517 0.71737,1.73012 0,1.09715 -0.71737,1.77232 -0.67517,0.67517 -1.77232,0.67517 z"
         id="path3044" /><path
         d="m 284.43147,171.07585 h -5.65455 v 10.76052 q 0,1.47693 0.67517,1.98331 0.71737,0.50638 1.89892,0.50638 0.84396,0 1.77232,-0.1688 0.97055,-0.21099 1.68792,-0.46418 l 0.67517,3.20706 q -0.84396,0.33759 -2.1943,0.63297 -1.30814,0.25319 -2.78507,0.25319 -3.20706,0 -4.64179,-1.30814 -1.39254,-1.35034 -1.39254,-3.96662 v -11.43569 h -3.03827 v -3.20705 h 3.03827 v -6.28752 h 4.3042 v 6.28752 h 5.65455 z"
         id="path3046" /><path
         d="m 307.72477,177.61656 q 0,2.48969 -0.80176,4.473 -0.75956,1.98331 -2.1099,3.33365 -1.35034,1.35034 -3.16486,2.0677 -1.81452,0.71737 -3.92443,0.71737 -2.1099,0 -3.92442,-0.67517 -1.77232,-0.67517 -3.12266,-1.94111 -1.30814,-1.30814 -2.06771,-3.20706 -0.71736,-1.89891 -0.71736,-4.3464 0,-2.53189 0.75956,-4.473 0.80177,-1.94111 2.15211,-3.29145 1.35034,-1.35034 3.16485,-2.02551 1.81452,-0.71737 3.92443,-0.71737 2.1099,0 3.88222,0.67517 1.81452,0.63297 3.12266,1.89892 1.35034,1.26594 2.06771,3.16485 0.75956,1.89892 0.75956,4.34641 z m -4.51519,0.21099 q 0,-1.89892 -0.46418,-3.20706 -0.46418,-1.35034 -1.22375,-2.1943 -0.75956,-0.84396 -1.73012,-1.22374 -0.97055,-0.37979 -2.02551,-0.37979 -1.01275,0 -1.98331,0.33759 -0.97055,0.33758 -1.73012,1.13935 -0.75957,0.80176 -1.22374,2.1521 -0.42199,1.35034 -0.42199,3.37585 0,1.85672 0.46418,3.20705 0.46418,1.35034 1.22375,2.2365 0.75956,0.84397 1.73012,1.26595 1.01275,0.37978 2.02551,0.37978 1.01275,0 1.98331,-0.33759 0.97056,-0.33758 1.73012,-1.13934 0.75957,-0.84397 1.18155,-2.19431 0.46418,-1.39253 0.46418,-3.41804 z"
         id="path3048" /><path
         d="m 316.41751,187.7863 h -4.3464 v -19.9175 h 3.41804 l 0.59078,2.65848 q 1.47693,-1.43474 3.08046,-2.1943 1.64573,-0.80177 3.71343,-0.80177 3.16486,0 4.89498,1.73012 1.73012,1.73013 1.73012,4.93718 v 13.58779 h -4.3464 v -13.03921 q 0,-1.73012 -0.88616,-2.74288 -0.88616,-1.01275 -2.65848,-1.01275 -1.35034,0 -2.70068,0.67517 -1.30814,0.63297 -2.48969,1.85671 z"
         id="path3050" /></g><g
       aria-label="Tecnologia"
       id="text1003-9"
       style="font-weight:300;font-size:15.5169px;font-family:Mukta;-inkscape-font-specification:'Mukta Light';opacity:1;fill:#238cb2;stroke-width:0.215515;stroke-opacity:0.908562;paint-order:stroke markers fill"><path
         d="m 270.28648,196.62703 v 0.93102 h -3.212 v 8.84463 h -1.11722 v -8.84463 h -3.14993 v -0.93102 z"
         style="stroke-width:0.215512"
         id="path3053" /><path
         d="m 276.307,202.83379 h -5.21368 v 0.13965 q 0,1.28791 0.69826,2.00168 0.69826,0.71378 1.90858,0.71378 0.54309,0 1.0086,-0.0776 0.46551,-0.0931 0.96205,-0.29482 l 0.23275,0.80688 q -0.43447,0.1862 -1.02412,0.29482 -0.57412,0.12413 -1.22583,0.12413 -0.76033,0 -1.42756,-0.21724 -0.66722,-0.21723 -1.17928,-0.66722 -0.49654,-0.46551 -0.79136,-1.17929 -0.29482,-0.71377 -0.29482,-1.70686 0,-0.85342 0.24827,-1.55169 0.24827,-0.69826 0.68274,-1.17928 0.44999,-0.49654 1.07067,-0.76033 0.63619,-0.26378 1.41204,-0.26378 0.66722,0 1.1948,0.23275 0.54309,0.21724 0.93101,0.63619 0.38792,0.41896 0.58964,1.0086 0.21724,0.58964 0.21724,1.30342 z m -1.11722,-0.80688 q 0,-0.43447 -0.10862,-0.82239 -0.10861,-0.40344 -0.34137,-0.69826 -0.21723,-0.31034 -0.57412,-0.48103 -0.35689,-0.1862 -0.85343,-0.1862 -0.89998,0 -1.48963,0.58964 -0.57412,0.58965 -0.69826,1.61376 z"
         style="stroke-width:0.215512"
         id="path3055" /><path
         d="m 281.31894,205.71994 q 0.49654,0 0.88446,-0.10862 0.38793,-0.10862 0.74482,-0.27931 l 0.23275,0.79137 q -0.83791,0.41895 -1.97065,0.41895 -0.76032,0 -1.42755,-0.23275 -0.66723,-0.23276 -1.17929,-0.69826 -0.49654,-0.48103 -0.79136,-1.17929 -0.2793,-0.71377 -0.2793,-1.66031 0,-0.86894 0.26379,-1.5672 0.2793,-0.69826 0.76032,-1.17929 0.49654,-0.49654 1.16377,-0.74481 0.66723,-0.26378 1.47411,-0.26378 0.48102,0 0.93101,0.0776 0.46551,0.0621 1.02412,0.31034 l -0.24827,0.83791 q -0.40344,-0.21724 -0.79137,-0.29482 -0.3724,-0.0931 -0.77584,-0.0931 -1.21032,0 -1.95513,0.76033 -0.7293,0.76032 -0.7293,2.11029 0,0.85343 0.23276,1.42756 0.23275,0.57412 0.60516,0.93101 0.3724,0.34137 0.85343,0.49654 0.48102,0.13966 0.97756,0.13966 z"
         style="stroke-width:0.215512"
         id="path3057" /><path
         d="m 285.84985,206.40268 h -1.08619 v -7.29294 h 0.8224 l 0.17069,1.00859 q 0.54309,-0.51205 1.13273,-0.80687 0.60516,-0.29482 1.381,-0.29482 1.11722,0 1.75341,0.62067 0.6362,0.62068 0.6362,1.73789 v 5.02748 h -1.08619 v -4.82576 q 0,-0.72929 -0.3724,-1.1948 -0.37241,-0.48102 -1.24135,-0.48102 -0.5431,0 -1.1017,0.2793 -0.55861,0.26379 -1.0086,0.76033 z"
         style="stroke-width:0.215512"
         id="path3059" /><path
         d="m 299.22539,202.67862 q 0,0.9155 -0.26379,1.64479 -0.26379,0.71378 -0.72929,1.21032 -0.46551,0.49654 -1.1017,0.76033 -0.62068,0.24827 -1.33446,0.24827 -0.72929,0 -1.34997,-0.23275 -0.62067,-0.24827 -1.07066,-0.71378 -0.44999,-0.48102 -0.71378,-1.16377 -0.26379,-0.69826 -0.26379,-1.59824 0,-0.91549 0.26379,-1.62927 0.2793,-0.71378 0.74481,-1.1948 0.46551,-0.49654 1.08618,-0.74481 0.6362,-0.24827 1.36549,-0.24827 0.71378,0 1.33446,0.23275 0.62067,0.23275 1.07066,0.69826 0.44999,0.46551 0.69826,1.14825 0.26379,0.68274 0.26379,1.58272 z m -1.13273,0.0776 q 0,-0.76033 -0.20172,-1.30342 -0.18621,-0.55861 -0.51206,-0.89998 -0.31034,-0.35689 -0.7293,-0.51206 -0.40344,-0.17069 -0.83791,-0.17069 -0.43447,0 -0.85343,0.15517 -0.40344,0.15517 -0.72929,0.49654 -0.31034,0.34138 -0.51206,0.89998 -0.1862,0.5431 -0.1862,1.33446 0,0.79136 0.1862,1.34997 0.20172,0.55861 0.52757,0.9155 0.32586,0.34137 0.74482,0.51205 0.41895,0.15517 0.85342,0.15517 0.43448,0 0.83792,-0.13965 0.40344,-0.15517 0.71377,-0.49654 0.32586,-0.35689 0.51206,-0.9155 0.18621,-0.55861 0.18621,-1.381 z"
         style="stroke-width:0.215512"
         id="path3061" /><path
         d="m 301.02533,206.40268 v -11.017 h 1.07066 v 11.017 z"
         style="stroke-width:0.215512"
         id="path3063" /><path
         d="m 310.72337,202.67862 q 0,0.9155 -0.26379,1.64479 -0.26379,0.71378 -0.72929,1.21032 -0.46551,0.49654 -1.1017,0.76033 -0.62068,0.24827 -1.33446,0.24827 -0.72929,0 -1.34997,-0.23275 -0.62067,-0.24827 -1.07066,-0.71378 -0.44999,-0.48102 -0.71378,-1.16377 -0.26379,-0.69826 -0.26379,-1.59824 0,-0.91549 0.26379,-1.62927 0.2793,-0.71378 0.74481,-1.1948 0.46551,-0.49654 1.08618,-0.74481 0.6362,-0.24827 1.36549,-0.24827 0.71378,0 1.33446,0.23275 0.62067,0.23275 1.07066,0.69826 0.44999,0.46551 0.69826,1.14825 0.26379,0.68274 0.26379,1.58272 z m -1.13273,0.0776 q 0,-0.76033 -0.20172,-1.30342 -0.18621,-0.55861 -0.51206,-0.89998 -0.31034,-0.35689 -0.7293,-0.51206 -0.40344,-0.17069 -0.83791,-0.17069 -0.43447,0 -0.85343,0.15517 -0.40344,0.15517 -0.72929,0.49654 -0.31034,0.34138 -0.51206,0.89998 -0.1862,0.5431 -0.1862,1.33446 0,0.79136 0.1862,1.34997 0.20172,0.55861 0.52757,0.9155 0.32586,0.34137 0.74482,0.51205 0.41895,0.15517 0.85342,0.15517 0.43448,0 0.83792,-0.13965 0.40344,-0.15517 0.71377,-0.49654 0.32586,-0.35689 0.51206,-0.9155 0.18621,-0.55861 0.18621,-1.381 z"
         style="stroke-width:0.215512"
         id="path3065" /><path
         d="m 312.21297,201.53037 q 0,-0.60516 0.21724,-1.07066 0.21723,-0.48103 0.60516,-0.79137 0.38792,-0.32585 0.93101,-0.48102 0.54309,-0.17068 1.17929,-0.17068 0.26378,0 0.4655,0.031 0.21724,0.031 0.41896,0.0621 h 3.08786 v 0.82239 h -0.68274 l -1.30342,-0.13965 q 0.38792,0.29482 0.62067,0.76033 0.23276,0.44999 0.23276,0.96205 0,0.60516 -0.21724,1.08618 -0.21724,0.46551 -0.60516,0.79136 -0.3724,0.32586 -0.89998,0.49654 -0.52757,0.15517 -1.14825,0.15517 -0.21724,0 -0.43447,-0.0155 -0.20172,-0.0155 -0.41896,-0.0465 -0.35689,0.12414 -0.55861,0.37241 -0.1862,0.23275 -0.1862,0.49654 0,0.37241 0.26379,0.52757 0.2793,0.15517 0.71378,0.15517 h 1.90857 q 1.21032,0 1.84652,0.52758 0.63619,0.52757 0.63619,1.41204 0,1.16376 -0.99308,1.83099 -0.99309,0.66723 -2.69994,0.66723 -1.55169,0 -2.46719,-0.58965 -0.9155,-0.57412 -0.9155,-1.64479 0,-0.57412 0.34137,-0.96204 0.35689,-0.38793 0.96205,-0.60516 -0.2793,-0.17069 -0.44999,-0.41896 -0.15517,-0.26379 -0.15517,-0.66723 0,-0.49654 0.27931,-0.82239 0.29482,-0.34137 0.74481,-0.54309 -0.55861,-0.26379 -0.94653,-0.80688 -0.37241,-0.54309 -0.37241,-1.38101 z m 1.58272,4.87231 q -0.41895,0.17069 -0.66722,0.46551 -0.23276,0.31033 -0.23276,0.71377 0,0.76033 0.60516,1.13274 0.62068,0.38792 1.7379,0.38792 0.68274,0 1.16376,-0.13965 0.49654,-0.12414 0.80688,-0.35689 0.31034,-0.21724 0.44999,-0.49654 0.13966,-0.27931 0.13966,-0.55861 0,-0.34137 -0.13966,-0.57413 -0.12413,-0.21723 -0.3724,-0.35688 -0.23276,-0.12414 -0.55861,-0.17069 -0.32586,-0.0465 -0.71378,-0.0465 z m 3.07235,-4.84127 q 0,-0.86895 -0.48102,-1.30342 -0.46551,-0.43448 -1.24135,-0.43448 -0.79137,0 -1.30342,0.41896 -0.51206,0.41896 -0.51206,1.25687 0,0.88446 0.49654,1.31894 0.51206,0.41895 1.2879,0.41895 0.77585,0 1.25687,-0.41895 0.49654,-0.41896 0.49654,-1.25687 z"
         style="stroke-width:0.215512"
         id="path3067" /><path
         d="m 320.79381,206.40268 v -7.29294 H 321.88 v 7.29294 z m 0.5431,-9.17049 q -0.31034,0 -0.52758,-0.20172 -0.20172,-0.20172 -0.20172,-0.52757 0,-0.32586 0.20172,-0.52758 0.21724,-0.21723 0.52758,-0.21723 0.2793,0 0.49654,0.20172 0.23275,0.20172 0.23275,0.54309 0,0.34137 -0.21724,0.54309 -0.21723,0.1862 -0.51205,0.1862 z"
         style="stroke-width:0.215512"
         id="path3069" /><path
         d="m 324.20751,199.76145 q 0.72929,-0.38793 1.33445,-0.55861 0.62068,-0.1862 1.36549,-0.1862 0.55861,0 1.02411,0.13965 0.48103,0.12413 0.8224,0.43447 0.35689,0.31034 0.54309,0.8224 0.20172,0.49654 0.20172,1.24135 v 4.74817 h -0.83791 l -0.17069,-0.88446 h -0.031 q -0.46551,0.54309 -1.07067,0.79136 -0.58964,0.23275 -1.30342,0.23275 -0.51206,0 -0.96205,-0.13965 -0.43447,-0.15517 -0.76032,-0.43447 -0.31034,-0.27931 -0.49654,-0.66723 -0.17069,-0.38792 -0.17069,-0.86895 0,-0.57412 0.23275,-1.0086 0.23276,-0.43447 0.65171,-0.72929 0.43448,-0.29482 1.02412,-0.43447 0.60516,-0.15517 1.33445,-0.15517 h 1.47411 v -0.54309 q 0,-0.93102 -0.43448,-1.28791 -0.43447,-0.3724 -1.14825,-0.3724 -0.43447,0 -0.99308,0.13965 -0.54309,0.12414 -1.21032,0.49654 z m 4.20508,3.13441 -1.21032,0.0155 q -1.2879,0.031 -1.831,0.44999 -0.54309,0.41895 -0.54309,1.02411 0,0.7293 0.44999,1.02412 0.44999,0.29482 1.07067,0.29482 0.54309,0 1.1017,-0.24827 0.55861,-0.26379 0.96205,-0.85343 z"
         style="stroke-width:0.215512"
         id="path3071" /></g></g></svg>
