<?xml version="1.0" encoding="UTF-8" standalone="no"?>
<!-- Created with Inkscape (http://www.inkscape.org/) -->

<svg
   width="1936.8914"
   height="1097.8419"
   viewBox="0 0 512.46918 290.47067"
   version="1.1"
   id="svg21"
   xml:space="preserve"
   xmlns:xlink="http://www.w3.org/1999/xlink"
   xmlns="http://www.w3.org/2000/svg"
   xmlns:svg="http://www.w3.org/2000/svg"><defs
     id="defs18"><linearGradient
       id="linearGradient17183"><stop
         style="stop-color:#4f08c2;stop-opacity:0.08032914;"
         offset="0"
         id="stop17179" /><stop
         style="stop-color:#4f08c2;stop-opacity:0;"
         offset="1"
         id="stop17181" /></linearGradient><linearGradient
       id="linearGradient17121"><stop
         style="stop-color:#e31bd5;stop-opacity:0.22589035;"
         offset="0"
         id="stop17117" /><stop
         style="stop-color:#e31bd5;stop-opacity:0;"
         offset="1"
         id="stop17119" /></linearGradient><linearGradient
       id="linearGradient17087"><stop
         style="stop-color:#0cbec2;stop-opacity:0.13947754;"
         offset="0"
         id="stop17083" /><stop
         style="stop-color:#1f787a;stop-opacity:0.15744476;"
         offset="0.5"
         id="stop17189" /><stop
         style="stop-color:#323232;stop-opacity:0;"
         offset="1"
         id="stop17085" /></linearGradient><linearGradient
       id="linearGradient17035"><stop
         style="stop-color:#0a90c6;stop-opacity:0.27475968;"
         offset="0"
         id="stop17031" /><stop
         style="stop-color:#1e617c;stop-opacity:0.16774216;"
         offset="0.5"
         id="stop17089" /><stop
         style="stop-color:#323232;stop-opacity:0;"
         offset="1"
         id="stop17033" /></linearGradient><linearGradient
       id="linearGradient16969"><stop
         style="stop-color:#007792;stop-opacity:1;"
         offset="0"
         id="stop16965" /><stop
         style="stop-color:#5e09c8;stop-opacity:1;"
         offset="0.40543076"
         id="stop16973" /><stop
         style="stop-color:#097599;stop-opacity:1;"
         offset="0.70127416"
         id="stop16975" /><stop
         style="stop-color:#c10dbd;stop-opacity:1;"
         offset="1"
         id="stop16967" /></linearGradient><linearGradient
       id="linearGradient5449"><stop
         style="stop-color:#2cb2e6;stop-opacity:1;"
         offset="0"
         id="stop5445" /><stop
         style="stop-color:#2cb2e6;stop-opacity:0;"
         offset="1"
         id="stop5447" /></linearGradient><linearGradient
       id="linearGradient4702"><stop
         style="stop-color:#37baeb;stop-opacity:0.21883319;"
         offset="0.02160791"
         id="stop4698" /><stop
         style="stop-color:#2cb2e6;stop-opacity:1;"
         offset="1"
         id="stop4700" /></linearGradient><linearGradient
       xlink:href="#linearGradient4702"
       id="linearGradient4704"
       x1="60.920395"
       y1="40.111816"
       x2="106.70199"
       y2="40.111816"
       gradientUnits="userSpaceOnUse"
       gradientTransform="translate(157.65833,16.220754)" /><linearGradient
       xlink:href="#linearGradient5449"
       id="linearGradient5451"
       x1="-8.1493645"
       y1="118.58627"
       x2="25.537514"
       y2="118.58627"
       gradientUnits="userSpaceOnUse"
       gradientTransform="matrix(0.95527979,0,0,0.95527979,141.10627,112.64487)" /><linearGradient
       xlink:href="#linearGradient16969"
       id="linearGradient16971"
       x1="-2.8414197"
       y1="141.76228"
       x2="509.62775"
       y2="141.76228"
       gradientUnits="userSpaceOnUse" /><radialGradient
       xlink:href="#linearGradient17035"
       id="radialGradient17037"
       cx="116.57169"
       cy="117.22446"
       fx="116.57169"
       fy="117.22446"
       r="67.129478"
       gradientUnits="userSpaceOnUse"
       gradientTransform="matrix(1.7109859,0.01902571,-0.01867038,1.6790306,-78.714652,-80.232394)" /><radialGradient
       xlink:href="#linearGradient17087"
       id="radialGradient17037-2"
       cx="116.57169"
       cy="117.22446"
       fx="116.57169"
       fy="117.22446"
       r="67.129478"
       gradientUnits="userSpaceOnUse"
       gradientTransform="matrix(1.6571451,0.01724015,-0.01808287,1.5214535,207.00116,3.7089708)" /><radialGradient
       xlink:href="#linearGradient17121"
       id="radialGradient17123"
       cx="339.37646"
       cy="77.80069"
       fx="339.37646"
       fy="77.80069"
       r="80.671402"
       gradientUnits="userSpaceOnUse"
       gradientTransform="matrix(0.95052218,0,0,0.8780915,98.657233,3.9786256)" /><radialGradient
       xlink:href="#linearGradient17183"
       id="radialGradient17187"
       cx="148.91263"
       cy="226.37292"
       fx="148.91263"
       fy="226.37292"
       r="26.720932"
       gradientTransform="matrix(2.0903652,0,0,2.0642879,-91.266582,-234.11618)"
       gradientUnits="userSpaceOnUse" /><linearGradient
       xlink:href="#linearGradient5449"
       id="linearGradient17258"
       gradientUnits="userSpaceOnUse"
       gradientTransform="matrix(0.95527979,0,0,0.95527979,369.78481,11.231712)"
       x1="-8.1493645"
       y1="118.58627"
       x2="25.537514"
       y2="118.58627" /><linearGradient
       xlink:href="#linearGradient4702"
       id="linearGradient17303"
       gradientUnits="userSpaceOnUse"
       gradientTransform="translate(-41.646795,92.004612)"
       x1="60.920395"
       y1="40.111816"
       x2="106.70199"
       y2="40.111816" /></defs><g
     id="g16770"
     transform="translate(2.8414197,3.4730506)"><path
       id="path1210-6-1-0-1-6-6-7-7"
       style="display:inline;opacity:0.357011;fill:url(#linearGradient16971);fill-opacity:1;stroke-width:0.24771;paint-order:stroke markers fill"
       d="m -1.2443686,108.15813 a 0.51295888,0.51295888 0 0 1 -0.5129588,0.51296 0.51295888,0.51295888 0 0 1 -0.5129589,-0.51296 0.51295888,0.51295888 0 0 1 0.5129589,-0.51296 0.51295888,0.51295888 0 0 1 0.5129588,0.51296 z M 250.96243,285.55704 a 0.73637062,0.73637062 0 0 1 -0.73637,0.73637 0.73637062,0.73637062 0 0 1 -0.73637,-0.73637 0.73637062,0.73637062 0 0 1 0.73637,-0.73637 0.73637062,0.73637062 0 0 1 0.73637,0.73637 z M 407.75326,112.96598 a 0.60805982,0.60805982 0 0 1 -0.60806,0.60806 0.60805982,0.60805982 0 0 1 -0.60806,-0.60806 0.60805982,0.60805982 0 0 1 0.60806,-0.60806 0.60805982,0.60805982 0 0 1 0.60806,0.60806 z m 46.48998,31.1336 a 0.51295888,0.51295888 0 0 1 -0.51295,0.51296 0.51295888,0.51295888 0 0 1 -0.51296,-0.51296 0.51295888,0.51295888 0 0 1 0.51296,-0.51296 0.51295888,0.51295888 0 0 1 0.51295,0.51296 z m 44.28228,128.76471 a 0.73637062,0.73637062 0 0 1 -0.73637,0.73637 0.73637062,0.73637062 0 0 1 -0.73637,-0.73637 0.73637062,0.73637062 0 0 1 0.73637,-0.73637 0.73637062,0.73637062 0 0 1 0.73637,0.73637 z M 195.13604,31.742847 a 0.60805982,0.60805982 0 0 1 -0.60806,0.60806 0.60805982,0.60805982 0 0 1 -0.60806,-0.60806 0.60805982,0.60805982 0 0 1 0.60806,-0.608059 0.60805982,0.60805982 0 0 1 0.60806,0.608059 z M 305.1863,28.835636 a 0.51295888,0.51295888 0 0 1 -0.51296,0.512959 0.51295888,0.51295888 0 0 1 -0.51296,-0.512959 0.51295888,0.51295888 0 0 1 0.51296,-0.512959 0.51295888,0.51295888 0 0 1 0.51296,0.512959 z M 86.49461,9.5417395 A 0.73637062,0.73637062 0 0 1 85.75824,10.27811 0.73637062,0.73637062 0 0 1 85.021869,9.5417395 0.73637062,0.73637062 0 0 1 85.75824,8.8053688 0.73637062,0.73637062 0 0 1 86.49461,9.5417395 Z M 72.905751,39.759266 a 0.60805982,0.60805982 0 0 1 -0.60806,0.60806 0.60805982,0.60805982 0 0 1 -0.608059,-0.60806 0.60805982,0.60805982 0 0 1 0.608059,-0.60806 0.60805982,0.60805982 0 0 1 0.60806,0.60806 z M 188.37012,261.52118 a 0.51295888,0.51295888 0 0 1 -0.51296,0.51296 0.51295888,0.51295888 0 0 1 -0.51296,-0.51296 0.51295888,0.51295888 0 0 1 0.51296,-0.51296 0.51295888,0.51295888 0 0 1 0.51296,0.51296 z M 46.300149,218.935 a 0.73637062,0.73637062 0 0 1 -0.736371,0.73637 0.73637062,0.73637062 0 0 1 -0.736371,-0.73637 0.73637062,0.73637062 0 0 1 0.736371,-0.73637 0.73637062,0.73637062 0 0 1 0.736371,0.73637 z M 454.97439,128.87352 a 0.60805982,0.60805982 0 0 1 -0.60806,0.60806 0.60805982,0.60805982 0 0 1 -0.60806,-0.60806 0.60805982,0.60805982 0 0 1 0.60806,-0.60806 0.60805982,0.60805982 0 0 1 0.60806,0.60806 z M 352.24456,12.649694 a 0.51295888,0.51295888 0 0 1 -0.51296,0.512959 0.51295888,0.51295888 0 0 1 -0.51296,-0.512959 0.51295888,0.51295888 0 0 1 0.51296,-0.512958 0.51295888,0.51295888 0 0 1 0.51296,0.512958 z M 497.47978,195.10878 a 0.73637062,0.73637062 0 0 1 -0.73637,0.73637 0.73637062,0.73637062 0 0 1 -0.73637,-0.73637 0.73637062,0.73637062 0 0 1 0.73637,-0.73637 0.73637062,0.73637062 0 0 1 0.73637,0.73637 z M 252.25209,103.83054 a 0.60805982,0.60805982 0 0 1 -0.60806,0.60806 0.60805982,0.60805982 0 0 1 -0.60806,-0.60806 0.60805982,0.60805982 0 0 1 0.60806,-0.60806 0.60805982,0.60805982 0 0 1 0.60806,0.60806 z M 11.638283,246.13652 a 0.51295888,0.51295888 0 0 1 -0.512959,0.51296 0.51295888,0.51295888 0 0 1 -0.512959,-0.51296 0.51295888,0.51295888 0 0 1 0.512959,-0.51296 0.51295888,0.51295888 0 0 1 0.512959,0.51296 z M 220.73043,85.730759 a 0.73637062,0.73637062 0 0 1 -0.73637,0.73637 0.73637062,0.73637062 0 0 1 -0.73637,-0.73637 0.73637062,0.73637062 0 0 1 0.73637,-0.736371 0.73637062,0.73637062 0 0 1 0.73637,0.736371 z M 66.108472,282.73401 a 0.60805982,0.60805982 0 0 1 -0.60806,0.60806 0.60805982,0.60805982 0 0 1 -0.60806,-0.60806 0.60805982,0.60805982 0 0 1 0.60806,-0.60806 0.60805982,0.60805982 0 0 1 0.60806,0.60806 z M 57.792523,74.116791 a 0.51295888,0.51295888 0 0 1 -0.512959,0.512959 0.51295888,0.51295888 0 0 1 -0.512959,-0.512959 0.51295888,0.51295888 0 0 1 0.512959,-0.512959 0.51295888,0.51295888 0 0 1 0.512959,0.512959 z M 224.45306,187.61098 a 0.73637062,0.73637062 0 0 1 -0.73637,0.73637 0.73637062,0.73637062 0 0 1 -0.73637,-0.73637 0.73637062,0.73637062 0 0 1 0.73637,-0.73637 0.73637062,0.73637062 0 0 1 0.73637,0.73637 z M 165.55121,34.398315 a 0.60805982,0.60805982 0 0 1 -0.60806,0.60806 0.60805982,0.60805982 0 0 1 -0.60806,-0.60806 0.60805982,0.60805982 0 0 1 0.60806,-0.608059 0.60805982,0.60805982 0 0 1 0.60806,0.608059 z M 313.51815,187.88942 a 0.51295888,0.51295888 0 0 1 -0.51296,0.51296 0.51295888,0.51295888 0 0 1 -0.51296,-0.51296 0.51295888,0.51295888 0 0 1 0.51296,-0.51296 0.51295888,0.51295888 0 0 1 0.51296,0.51296 z m 19.11806,-69.44975 a 0.73637062,0.73637062 0 0 1 -0.73637,0.73637 0.73637062,0.73637062 0 0 1 -0.73637,-0.73637 0.73637062,0.73637062 0 0 1 0.73637,-0.73637 0.73637062,0.73637062 0 0 1 0.73637,0.73637 z M 175.474,102.44152 a 0.60805982,0.60805982 0 0 1 -0.60806,0.60806 0.60805982,0.60805982 0 0 1 -0.60806,-0.60806 0.60805982,0.60805982 0 0 1 0.60806,-0.60806 0.60805982,0.60805982 0 0 1 0.60806,0.60806 z m 57.15435,-8.563087 a 0.51295888,0.51295888 0 0 1 -0.51296,0.512959 0.51295888,0.51295888 0 0 1 -0.51296,-0.512959 0.51295888,0.51295888 0 0 1 0.51296,-0.512959 0.51295888,0.51295888 0 0 1 0.51296,0.512959 z m 47.23882,55.940707 a 0.73637062,0.73637062 0 0 1 -0.73637,0.73637 0.73637062,0.73637062 0 0 1 -0.73637,-0.73637 0.73637062,0.73637062 0 0 1 0.73637,-0.73637 0.73637062,0.73637062 0 0 1 0.73637,0.73637 z m 89.73067,-30.51712 a 0.60805982,0.60805982 0 0 1 -0.60806,0.60806 0.60805982,0.60805982 0 0 1 -0.60806,-0.60806 0.60805982,0.60805982 0 0 1 0.60806,-0.60806 0.60805982,0.60805982 0 0 1 0.60806,0.60806 z m 1.35756,-26.404384 a 0.51295888,0.51295888 0 0 1 -0.51296,0.512959 0.51295888,0.51295888 0 0 1 -0.51296,-0.512959 0.51295888,0.51295888 0 0 1 0.51296,-0.512958 0.51295888,0.51295888 0 0 1 0.51296,0.512958 z m 52.47604,148.035484 a 0.73637062,0.73637062 0 0 1 -0.73637,0.73637 0.73637062,0.73637062 0 0 1 -0.73637,-0.73637 0.73637062,0.73637062 0 0 1 0.73637,-0.73637 0.73637062,0.73637062 0 0 1 0.73637,0.73637 z M 401.2698,115.20327 a 0.60805982,0.60805982 0 0 1 -0.60806,0.60806 0.60805982,0.60805982 0 0 1 -0.60806,-0.60806 0.60805982,0.60805982 0 0 1 0.60806,-0.60806 0.60805982,0.60805982 0 0 1 0.60806,0.60806 z M 178.97815,83.741219 a 0.51295888,0.51295888 0 0 1 -0.51296,0.512958 0.51295888,0.51295888 0 0 1 -0.51295,-0.512958 0.51295888,0.51295888 0 0 1 0.51295,-0.512959 0.51295888,0.51295888 0 0 1 0.51296,0.512959 z M 469.7588,43.44772 a 0.73637062,0.73637062 0 0 1 -0.73637,0.73637 0.73637062,0.73637062 0 0 1 -0.73637,-0.73637 0.73637062,0.73637062 0 0 1 0.73637,-0.736371 0.73637062,0.73637062 0 0 1 0.73637,0.736371 z m -87.71129,91.52977 a 0.60805982,0.60805982 0 0 1 -0.60806,0.60806 0.60805982,0.60805982 0 0 1 -0.60806,-0.60806 0.60805982,0.60805982 0 0 1 0.60806,-0.60806 0.60805982,0.60805982 0 0 1 0.60806,0.60806 z M 188.04013,-2.668658 a 0.51295888,0.51295888 0 0 1 -0.51295,0.5129589 0.51295888,0.51295888 0 0 1 -0.51296,-0.5129589 0.51295888,0.51295888 0 0 1 0.51296,-0.5129589 0.51295888,0.51295888 0 0 1 0.51295,0.5129589 z M 490.28572,217.58612 a 0.73637062,0.73637062 0 0 1 -0.73637,0.73637 0.73637062,0.73637062 0 0 1 -0.73637,-0.73637 0.73637062,0.73637062 0 0 1 0.73637,-0.73637 0.73637062,0.73637062 0 0 1 0.73637,0.73637 z M 222.47297,143.91695 a 0.60805982,0.60805982 0 0 1 -0.60806,0.60806 0.60805982,0.60805982 0 0 1 -0.60806,-0.60806 0.60805982,0.60805982 0 0 1 0.60806,-0.60806 0.60805982,0.60805982 0 0 1 0.60806,0.60806 z m -29.3211,-75.107219 a 0.51295888,0.51295888 0 0 1 -0.51295,0.512958 0.51295888,0.51295888 0 0 1 -0.51296,-0.512958 0.51295888,0.51295888 0 0 1 0.51296,-0.512959 0.51295888,0.51295888 0 0 1 0.51295,0.512959 z M 462.46699,189.16525 a 0.73637062,0.73637062 0 0 1 -0.73637,0.73637 0.73637062,0.73637062 0 0 1 -0.73637,-0.73637 0.73637062,0.73637062 0 0 1 0.73637,-0.73637 0.73637062,0.73637062 0 0 1 0.73637,0.73637 z M 149.99742,52.335979 a 0.60805982,0.60805982 0 0 1 -0.60806,0.60806 0.60805982,0.60805982 0 0 1 -0.60806,-0.60806 0.60805982,0.60805982 0 0 1 0.60806,-0.608059 0.60805982,0.60805982 0 0 1 0.60806,0.608059 z M 471.64504,280.14966 a 0.51295888,0.51295888 0 0 1 -0.51296,0.51296 0.51295888,0.51295888 0 0 1 -0.51296,-0.51296 0.51295888,0.51295888 0 0 1 0.51296,-0.51296 0.51295888,0.51295888 0 0 1 0.51296,0.51296 z M 39.08862,6.5950279 a 0.73637062,0.73637062 0 0 1 -0.736371,0.7363706 0.73637062,0.73637062 0 0 1 -0.73637,-0.7363706 0.73637062,0.73637062 0 0 1 0.73637,-0.7363706 0.73637062,0.73637062 0 0 1 0.736371,0.7363706 z M 213.95059,270.84863 a 0.60805982,0.60805982 0 0 1 -0.60806,0.60806 0.60805982,0.60805982 0 0 1 -0.60806,-0.60806 0.60805982,0.60805982 0 0 1 0.60806,-0.60806 0.60805982,0.60805982 0 0 1 0.60806,0.60806 z M 21.198443,224.85391 a 0.51295888,0.51295888 0 0 1 -0.512959,0.51296 0.51295888,0.51295888 0 0 1 -0.512959,-0.51296 0.51295888,0.51295888 0 0 1 0.512959,-0.51296 0.51295888,0.51295888 0 0 1 0.512959,0.51296 z m 43.414099,10.07526 a 0.73637062,0.73637062 0 0 1 -0.736371,0.73637 0.73637062,0.73637062 0 0 1 -0.736371,-0.73637 0.73637062,0.73637062 0 0 1 0.736371,-0.73637 0.73637062,0.73637062 0 0 1 0.736371,0.73637 z M 388.56262,63.610603 a 0.60805982,0.60805982 0 0 1 -0.60806,0.60806 0.60805982,0.60805982 0 0 1 -0.60806,-0.60806 0.60805982,0.60805982 0 0 1 0.60806,-0.608059 0.60805982,0.60805982 0 0 1 0.60806,0.608059 z m -215.46418,0.532845 a 0.51295888,0.51295888 0 0 1 -0.51296,0.512959 0.51295888,0.51295888 0 0 1 -0.51296,-0.512959 0.51295888,0.51295888 0 0 1 0.51296,-0.512959 0.51295888,0.51295888 0 0 1 0.51296,0.512959 z m 52.15299,220.977342 a 0.73637062,0.73637062 0 0 1 -0.73637,0.73637 0.73637062,0.73637062 0 0 1 -0.73637,-0.73637 0.73637062,0.73637062 0 0 1 0.73637,-0.73637 0.73637062,0.73637062 0 0 1 0.73637,0.73637 z M 29.701148,208.02394 a 0.60805982,0.60805982 0 0 1 -0.60806,0.60806 0.60805982,0.60805982 0 0 1 -0.60806,-0.60806 0.60805982,0.60805982 0 0 1 0.60806,-0.60806 0.60805982,0.60805982 0 0 1 0.60806,0.60806 z M 241.41401,45.950882 a 0.51295888,0.51295888 0 0 1 -0.51296,0.512959 0.51295888,0.51295888 0 0 1 -0.51296,-0.512959 0.51295888,0.51295888 0 0 1 0.51296,-0.512959 0.51295888,0.51295888 0 0 1 0.51296,0.512959 z m 61.06287,87.413548 a 0.73637062,0.73637062 0 0 1 -0.73637,0.73637 0.73637062,0.73637062 0 0 1 -0.73637,-0.73637 0.73637062,0.73637062 0 0 1 0.73637,-0.73637 0.73637062,0.73637062 0 0 1 0.73637,0.73637 z M 92.030385,28.995617 a 0.60805982,0.60805982 0 0 1 -0.60806,0.60806 0.60805982,0.60805982 0 0 1 -0.60806,-0.60806 0.60805982,0.60805982 0 0 1 0.60806,-0.60806 0.60805982,0.60805982 0 0 1 0.60806,0.60806 z M 84.88435,20.370752 a 0.51295888,0.51295888 0 0 1 -0.512959,0.512959 0.51295888,0.51295888 0 0 1 -0.512959,-0.512959 0.51295888,0.51295888 0 0 1 0.512959,-0.512959 0.51295888,0.51295888 0 0 1 0.512959,0.512959 z M 323.06852,155.61482 a 0.73637062,0.73637062 0 0 1 -0.73637,0.73637 0.73637062,0.73637062 0 0 1 -0.73637,-0.73637 0.73637062,0.73637062 0 0 1 0.73637,-0.73637 0.73637062,0.73637062 0 0 1 0.73637,0.73637 z m 95.46187,-48.52013 a 0.60805982,0.60805982 0 0 1 -0.60806,0.60806 0.60805982,0.60805982 0 0 1 -0.60806,-0.60806 0.60805982,0.60805982 0 0 1 0.60806,-0.60806 0.60805982,0.60805982 0 0 1 0.60806,0.60806 z M 292.88445,25.306915 a 0.51295888,0.51295888 0 0 1 -0.51296,0.512959 0.51295888,0.51295888 0 0 1 -0.51296,-0.512959 0.51295888,0.51295888 0 0 1 0.51296,-0.512959 0.51295888,0.51295888 0 0 1 0.51296,0.512959 z M 187.18684,186.79605 a 0.73637062,0.73637062 0 0 1 -0.73637,0.73637 0.73637062,0.73637062 0 0 1 -0.73637,-0.73637 0.73637062,0.73637062 0 0 1 0.73637,-0.73637 0.73637062,0.73637062 0 0 1 0.73637,0.73637 z M 20.583024,148.12038 a 0.60805982,0.60805982 0 0 1 -0.60806,0.60806 0.60805982,0.60805982 0 0 1 -0.60806,-0.60806 0.60805982,0.60805982 0 0 1 0.60806,-0.60806 0.60805982,0.60805982 0 0 1 0.60806,0.60806 z M 401.92107,75.264145 a 0.51295888,0.51295888 0 0 1 -0.51296,0.512959 0.51295888,0.51295888 0 0 1 -0.51296,-0.512959 0.51295888,0.51295888 0 0 1 0.51296,-0.512959 0.51295888,0.51295888 0 0 1 0.51296,0.512959 z M 148.34198,117.46344 a 0.73637062,0.73637062 0 0 1 -0.73637,0.73637 0.73637062,0.73637062 0 0 1 -0.73637,-0.73637 0.73637062,0.73637062 0 0 1 0.73637,-0.73637 0.73637062,0.73637062 0 0 1 0.73637,0.73637 z M 344.65439,75.542915 a 0.60805982,0.60805982 0 0 1 -0.60806,0.60806 0.60805982,0.60805982 0 0 1 -0.60806,-0.60806 0.60805982,0.60805982 0 0 1 0.60806,-0.608059 0.60805982,0.60805982 0 0 1 0.60806,0.608059 z M 26.887366,31.381489 a 0.51295888,0.51295888 0 0 1 -0.512959,0.512959 0.51295888,0.51295888 0 0 1 -0.512959,-0.512959 0.51295888,0.51295888 0 0 1 0.512959,-0.512959 0.51295888,0.51295888 0 0 1 0.512959,0.512959 z M 62.115014,252.24913 a 0.73637062,0.73637062 0 0 1 -0.736371,0.73637 0.73637062,0.73637062 0 0 1 -0.736371,-0.73637 0.73637062,0.73637062 0 0 1 0.736371,-0.73637 0.73637062,0.73637062 0 0 1 0.736371,0.73637 z M 89.936688,22.435022 a 0.60805982,0.60805982 0 0 1 -0.608059,0.60806 0.60805982,0.60805982 0 0 1 -0.60806,-0.60806 0.60805982,0.60805982 0 0 1 0.60806,-0.608059 0.60805982,0.60805982 0 0 1 0.608059,0.608059 z M 2.1613425,114.97861 a 0.51295888,0.51295888 0 0 1 -0.5129589,0.51296 0.51295888,0.51295888 0 0 1 -0.5129589,-0.51296 0.51295888,0.51295888 0 0 1 0.5129589,-0.51296 0.51295888,0.51295888 0 0 1 0.5129589,0.51296 z M 353.91197,39.081276 a 0.73637062,0.73637062 0 0 1 -0.73637,0.736371 0.73637062,0.73637062 0 0 1 -0.73637,-0.736371 0.73637062,0.73637062 0 0 1 0.73637,-0.736371 0.73637062,0.73637062 0 0 1 0.73637,0.736371 z M 80.691281,204.36853 a 0.60805982,0.60805982 0 0 1 -0.60806,0.60806 0.60805982,0.60805982 0 0 1 -0.608059,-0.60806 0.60805982,0.60805982 0 0 1 0.608059,-0.60806 0.60805982,0.60805982 0 0 1 0.60806,0.60806 z m 342.287899,55.42188 a 0.51295888,0.51295888 0 0 1 -0.51296,0.51295 0.51295888,0.51295888 0 0 1 -0.51296,-0.51295 0.51295888,0.51295888 0 0 1 0.51296,-0.51296 0.51295888,0.51295888 0 0 1 0.51296,0.51296 z M 153.11071,224.97444 a 0.73637062,0.73637062 0 0 1 -0.73637,0.73637 0.73637062,0.73637062 0 0 1 -0.73637,-0.73637 0.73637062,0.73637062 0 0 1 0.73637,-0.73637 0.73637062,0.73637062 0 0 1 0.73637,0.73637 z M -1.6253,7.8772025 A 0.60805982,0.60805982 0 0 1 -2.2333598,8.4852623 0.60805982,0.60805982 0 0 1 -2.8414196,7.8772025 0.60805982,0.60805982 0 0 1 -2.2333598,7.2691427 0.60805982,0.60805982 0 0 1 -1.6253,7.8772025 Z M 122.30066,63.000744 a 0.51295888,0.51295888 0 0 1 -0.51296,0.512959 0.51295888,0.51295888 0 0 1 -0.51296,-0.512959 0.51295888,0.51295888 0 0 1 0.51296,-0.512959 0.51295888,0.51295888 0 0 1 0.51296,0.512959 z M 418.4008,2.5154006 a 0.73637062,0.73637062 0 0 1 -0.73637,0.7363707 0.73637062,0.73637062 0 0 1 -0.73637,-0.7363707 0.73637062,0.73637062 0 0 1 0.73637,-0.7363706 0.73637062,0.73637062 0 0 1 0.73637,0.7363706 z m 52.43474,44.8449164 a 0.60805982,0.60805982 0 0 1 -0.60806,0.60806 0.60805982,0.60805982 0 0 1 -0.60806,-0.60806 0.60805982,0.60805982 0 0 1 0.60806,-0.60806 0.60805982,0.60805982 0 0 1 0.60806,0.60806 z M 85.400517,29.165695 a 0.51295888,0.51295888 0 0 1 -0.512959,0.512959 0.51295888,0.51295888 0 0 1 -0.512959,-0.512959 0.51295888,0.51295888 0 0 1 0.512959,-0.512959 0.51295888,0.51295888 0 0 1 0.512959,0.512959 z m 34.153123,60.210541 a 0.73637062,0.73637062 0 0 1 -0.73637,0.736371 0.73637062,0.73637062 0 0 1 -0.73637,-0.736371 0.73637062,0.73637062 0 0 1 0.73637,-0.736371 0.73637062,0.73637062 0 0 1 0.73637,0.736371 z M 150.33597,8.2985249 a 0.60805982,0.60805982 0 0 1 -0.60806,0.6080598 0.60805982,0.60805982 0 0 1 -0.60806,-0.6080598 0.60805982,0.60805982 0 0 1 0.60806,-0.6080599 0.60805982,0.60805982 0 0 1 0.60806,0.6080599 z M 330.85402,152.14232 a 0.51295888,0.51295888 0 0 1 -0.51296,0.51296 0.51295888,0.51295888 0 0 1 -0.51295,-0.51296 0.51295888,0.51295888 0 0 1 0.51295,-0.51296 0.51295888,0.51295888 0 0 1 0.51296,0.51296 z m 160.36184,47.6853 a 0.73637062,0.73637062 0 0 1 -0.73637,0.73637 0.73637062,0.73637062 0 0 1 -0.73637,-0.73637 0.73637062,0.73637062 0 0 1 0.73637,-0.73637 0.73637062,0.73637062 0 0 1 0.73637,0.73637 z m -121.72566,45.7926 a 0.60805982,0.60805982 0 0 1 -0.60806,0.60806 0.60805982,0.60805982 0 0 1 -0.60806,-0.60806 0.60805982,0.60805982 0 0 1 0.60806,-0.60806 0.60805982,0.60805982 0 0 1 0.60806,0.60806 z m -251.51558,-64.416 a 0.51295888,0.51295888 0 0 1 -0.51296,0.51296 0.51295888,0.51295888 0 0 1 -0.51296,-0.51296 0.51295888,0.51295888 0 0 1 0.51296,-0.51296 0.51295888,0.51295888 0 0 1 0.51296,0.51296 z M 451.29371,128.0672 a 0.73637062,0.73637062 0 0 1 -0.73637,0.73637 0.73637062,0.73637062 0 0 1 -0.73637,-0.73637 0.73637062,0.73637062 0 0 1 0.73637,-0.73637 0.73637062,0.73637062 0 0 1 0.73637,0.73637 z M 71.53365,214.08727 a 0.60805982,0.60805982 0 0 1 -0.608059,0.60805 0.60805982,0.60805982 0 0 1 -0.60806,-0.60805 0.60805982,0.60805982 0 0 1 0.60806,-0.60806 0.60805982,0.60805982 0 0 1 0.608059,0.60806 z m 387.41464,-87.2031 a 0.51295888,0.51295888 0 0 1 -0.51296,0.51296 0.51295888,0.51295888 0 0 1 -0.51296,-0.51296 0.51295888,0.51295888 0 0 1 0.51296,-0.51296 0.51295888,0.51295888 0 0 1 0.51296,0.51296 z m -216.12003,10.16777 a 0.73637062,0.73637062 0 0 1 -0.73637,0.73637 0.73637062,0.73637062 0 0 1 -0.73637,-0.73637 0.73637062,0.73637062 0 0 1 0.73637,-0.73637 0.73637062,0.73637062 0 0 1 0.73637,0.73637 z M 54.291421,86.215881 a 0.60805982,0.60805982 0 0 1 -0.60806,0.60806 0.60805982,0.60805982 0 0 1 -0.60806,-0.60806 0.60805982,0.60805982 0 0 1 0.60806,-0.608059 0.60805982,0.60805982 0 0 1 0.60806,0.608059 z m 70.044639,61.336669 a 0.51295888,0.51295888 0 0 1 -0.51296,0.51296 0.51295888,0.51295888 0 0 1 -0.51296,-0.51296 0.51295888,0.51295888 0 0 1 0.51296,-0.51296 0.51295888,0.51295888 0 0 1 0.51296,0.51296 z m 198.5193,-26.80961 a 0.73637062,0.73637062 0 0 1 -0.73637,0.73637 0.73637062,0.73637062 0 0 1 -0.73637,-0.73637 0.73637062,0.73637062 0 0 1 0.73637,-0.73637 0.73637062,0.73637062 0 0 1 0.73637,0.73637 z m 142.0876,154.34855 a 0.60805982,0.60805982 0 0 1 -0.60806,0.60806 0.60805982,0.60805982 0 0 1 -0.60806,-0.60806 0.60805982,0.60805982 0 0 1 0.60806,-0.60806 0.60805982,0.60805982 0 0 1 0.60806,0.60806 z M 25.051316,88.740387 a 0.51295888,0.51295888 0 0 1 -0.512959,0.512959 0.51295888,0.51295888 0 0 1 -0.512959,-0.512959 0.51295888,0.51295888 0 0 1 0.512959,-0.512959 0.51295888,0.51295888 0 0 1 0.512959,0.512959 z m 11.373756,96.774333 a 0.73637062,0.73637062 0 0 1 -0.73637,0.73638 0.73637062,0.73637062 0 0 1 -0.736371,-0.73638 0.73637062,0.73637062 0 0 1 0.736371,-0.73637 0.73637062,0.73637062 0 0 1 0.73637,0.73637 z m 19.533055,30.61969 a 0.60805982,0.60805982 0 0 1 -0.60806,0.60806 0.60805982,0.60805982 0 0 1 -0.60806,-0.60806 0.60805982,0.60805982 0 0 1 0.60806,-0.60806 0.60805982,0.60805982 0 0 1 0.60806,0.60806 z M 444.99276,1.6035382 a 0.51295888,0.51295888 0 0 1 -0.51296,0.5129588 0.51295888,0.51295888 0 0 1 -0.51296,-0.5129588 0.51295888,0.51295888 0 0 1 0.51296,-0.5129589 0.51295888,0.51295888 0 0 1 0.51296,0.5129589 z M 200.41583,186.32536 a 0.73637062,0.73637062 0 0 1 -0.73637,0.73637 0.73637062,0.73637062 0 0 1 -0.73637,-0.73637 0.73637062,0.73637062 0 0 1 0.73637,-0.73637 0.73637062,0.73637062 0 0 1 0.73637,0.73637 z M 53.328263,241.28134 a 0.60805982,0.60805982 0 0 1 -0.60806,0.60806 0.60805982,0.60805982 0 0 1 -0.608059,-0.60806 0.60805982,0.60805982 0 0 1 0.608059,-0.60806 0.60805982,0.60805982 0 0 1 0.60806,0.60806 z m 207.048647,28.74243 a 0.51295888,0.51295888 0 0 1 -0.51296,0.51296 0.51295888,0.51295888 0 0 1 -0.51296,-0.51296 0.51295888,0.51295888 0 0 1 0.51296,-0.51296 0.51295888,0.51295888 0 0 1 0.51296,0.51296 z M 343.35063,55.235542 a 0.73637062,0.73637062 0 0 1 -0.73637,0.736371 0.73637062,0.73637062 0 0 1 -0.73637,-0.736371 0.73637062,0.73637062 0 0 1 0.73637,-0.73637 0.73637062,0.73637062 0 0 1 0.73637,0.73637 z m 82.97725,190.659648 a 0.60805982,0.60805982 0 0 1 -0.60806,0.60806 0.60805982,0.60805982 0 0 1 -0.60806,-0.60806 0.60805982,0.60805982 0 0 1 0.60806,-0.60806 0.60805982,0.60805982 0 0 1 0.60806,0.60806 z M 189.95601,128.38492 a 0.51295888,0.51295888 0 0 1 -0.51296,0.51296 0.51295888,0.51295888 0 0 1 -0.51295,-0.51296 0.51295888,0.51295888 0 0 1 0.51295,-0.51296 0.51295888,0.51295888 0 0 1 0.51296,0.51296 z m -5.19391,6.06676 a 0.73637062,0.73637062 0 0 1 -0.73637,0.73637 0.73637062,0.73637062 0 0 1 -0.73637,-0.73637 0.73637062,0.73637062 0 0 1 0.73637,-0.73638 0.73637062,0.73637062 0 0 1 0.73637,0.73638 z M 434.60449,59.292534 a 0.60805982,0.60805982 0 0 1 -0.60806,0.60806 0.60805982,0.60805982 0 0 1 -0.60806,-0.60806 0.60805982,0.60805982 0 0 1 0.60806,-0.60806 0.60805982,0.60805982 0 0 1 0.60806,0.60806 z M 334.36666,-2.9600918 a 0.51295888,0.51295888 0 0 1 -0.51296,0.5129589 0.51295888,0.51295888 0 0 1 -0.51296,-0.5129589 0.51295888,0.51295888 0 0 1 0.51296,-0.5129589 0.51295888,0.51295888 0 0 1 0.51296,0.5129589 z M 216.30636,117.19559 a 0.73637062,0.73637062 0 0 1 -0.73637,0.73637 0.73637062,0.73637062 0 0 1 -0.73637,-0.73637 0.73637062,0.73637062 0 0 1 0.73637,-0.73637 0.73637062,0.73637062 0 0 1 0.73637,0.73637 z m 277.20261,129.50934 a 0.60805982,0.60805982 0 0 1 -0.60806,0.60806 0.60805982,0.60805982 0 0 1 -0.60806,-0.60806 0.60805982,0.60805982 0 0 1 0.60806,-0.60806 0.60805982,0.60805982 0 0 1 0.60806,0.60806 z M 209.29419,188.90398 a 0.51295888,0.51295888 0 0 1 -0.51296,0.51296 0.51295888,0.51295888 0 0 1 -0.51295,-0.51296 0.51295888,0.51295888 0 0 1 0.51295,-0.51296 0.51295888,0.51295888 0 0 1 0.51296,0.51296 z m 275.26069,80.96916 a 0.73637062,0.73637062 0 0 1 -0.73637,0.73637 0.73637062,0.73637062 0 0 1 -0.73637,-0.73637 0.73637062,0.73637062 0 0 1 0.73637,-0.73637 0.73637062,0.73637062 0 0 1 0.73637,0.73637 z M 160.24307,55.445786 a 0.60805982,0.60805982 0 0 1 -0.60806,0.608059 0.60805982,0.60805982 0 0 1 -0.60806,-0.608059 0.60805982,0.60805982 0 0 1 0.60806,-0.60806 0.60805982,0.60805982 0 0 1 0.60806,0.60806 z m 4.27706,-6.107388 a 0.51295888,0.51295888 0 0 1 -0.51296,0.512959 0.51295888,0.51295888 0 0 1 -0.51296,-0.512959 0.51295888,0.51295888 0 0 1 0.51296,-0.512959 0.51295888,0.51295888 0 0 1 0.51296,0.512959 z m 63.80111,111.932642 a 0.73637062,0.73637062 0 0 1 -0.73637,0.73637 0.73637062,0.73637062 0 0 1 -0.73637,-0.73637 0.73637062,0.73637062 0 0 1 0.73637,-0.73637 0.73637062,0.73637062 0 0 1 0.73637,0.73637 z M 1.5383279,229.96114 a 0.60805982,0.60805982 0 0 1 -0.60805985,0.60806 0.60805982,0.60805982 0 0 1 -0.60805982,-0.60806 0.60805982,0.60805982 0 0 1 0.60805982,-0.60806 0.60805982,0.60805982 0 0 1 0.60805985,0.60806 z M 260.59639,286.48468 a 0.51295888,0.51295888 0 0 1 -0.51295,0.51296 0.51295888,0.51295888 0 0 1 -0.51296,-0.51296 0.51295888,0.51295888 0 0 1 0.51296,-0.51296 0.51295888,0.51295888 0 0 1 0.51295,0.51296 z M 33.719117,171.96384 a 0.73637062,0.73637062 0 0 1 -0.736371,0.73637 0.73637062,0.73637062 0 0 1 -0.73637,-0.73637 0.73637062,0.73637062 0 0 1 0.73637,-0.73637 0.73637062,0.73637062 0 0 1 0.736371,0.73637 z M 326.8349,135.55721 a 0.60805982,0.60805982 0 0 1 -0.60806,0.60806 0.60805982,0.60805982 0 0 1 -0.60806,-0.60806 0.60805982,0.60805982 0 0 1 0.60806,-0.60806 0.60805982,0.60805982 0 0 1 0.60806,0.60806 z m -37.13234,99.96348 a 0.51295888,0.51295888 0 0 1 -0.51295,0.51296 0.51295888,0.51295888 0 0 1 -0.51296,-0.51296 0.51295888,0.51295888 0 0 1 0.51296,-0.51296 0.51295888,0.51295888 0 0 1 0.51295,0.51296 z M 74.984456,138.64603 a 0.73637062,0.73637062 0 0 1 -0.736371,0.73637 0.73637062,0.73637062 0 0 1 -0.736371,-0.73637 0.73637062,0.73637062 0 0 1 0.736371,-0.73637 0.73637062,0.73637062 0 0 1 0.736371,0.73637 z M 19.249942,4.627326 a 0.60805982,0.60805982 0 0 1 -0.60806,0.6080598 0.60805982,0.60805982 0 0 1 -0.60806,-0.6080598 0.60805982,0.60805982 0 0 1 0.60806,-0.6080598 0.60805982,0.60805982 0 0 1 0.60806,0.6080598 z M 138.04085,182.22363 a 0.51295888,0.51295888 0 0 1 -0.51296,0.51296 0.51295888,0.51295888 0 0 1 -0.51296,-0.51296 0.51295888,0.51295888 0 0 1 0.51296,-0.51296 0.51295888,0.51295888 0 0 1 0.51296,0.51296 z m 129.87905,-2.32116 a 0.73637062,0.73637062 0 0 1 -0.73637,0.73637 0.73637062,0.73637062 0 0 1 -0.73637,-0.73637 0.73637062,0.73637062 0 0 1 0.73637,-0.73637 0.73637062,0.73637062 0 0 1 0.73637,0.73637 z M 38.694386,177.96735 a 0.60805982,0.60805982 0 0 1 -0.608059,0.60806 0.60805982,0.60805982 0 0 1 -0.60806,-0.60806 0.60805982,0.60805982 0 0 1 0.60806,-0.60806 0.60805982,0.60805982 0 0 1 0.608059,0.60806 z m 406.487004,2.03984 a 0.51295888,0.51295888 0 0 1 -0.51296,0.51296 0.51295888,0.51295888 0 0 1 -0.51296,-0.51296 0.51295888,0.51295888 0 0 1 0.51296,-0.51296 0.51295888,0.51295888 0 0 1 0.51296,0.51296 z M 93.456105,260.99158 a 0.73637062,0.73637062 0 0 1 -0.736371,0.73637 0.73637062,0.73637062 0 0 1 -0.73637,-0.73637 0.73637062,0.73637062 0 0 1 0.73637,-0.73637 0.73637062,0.73637062 0 0 1 0.736371,0.73637 z m 217.420545,-61.6297 a 0.60805982,0.60805982 0 0 1 -0.60806,0.60806 0.60805982,0.60805982 0 0 1 -0.60806,-0.60806 0.60805982,0.60805982 0 0 1 0.60806,-0.60806 0.60805982,0.60805982 0 0 1 0.60806,0.60806 z m -44.22401,-82.73123 a 0.51295888,0.51295888 0 0 1 -0.51296,0.51296 0.51295888,0.51295888 0 0 1 -0.51296,-0.51296 0.51295888,0.51295888 0 0 1 0.51296,-0.51296 0.51295888,0.51295888 0 0 1 0.51296,0.51296 z M 507.63646,48.828644 a 0.73637062,0.73637062 0 0 1 -0.73637,0.73637 0.73637062,0.73637062 0 0 1 -0.73638,-0.73637 0.73637062,0.73637062 0 0 1 0.73638,-0.736371 0.73637062,0.73637062 0 0 1 0.73637,0.736371 z M 397.61834,136.42369 a 0.60805982,0.60805982 0 0 1 -0.60806,0.60806 0.60805982,0.60805982 0 0 1 -0.60806,-0.60806 0.60805982,0.60805982 0 0 1 0.60806,-0.60806 0.60805982,0.60805982 0 0 1 0.60806,0.60806 z M 255.25225,9.3922005 a 0.51295888,0.51295888 0 0 1 -0.51296,0.5129589 0.51295888,0.51295888 0 0 1 -0.51296,-0.5129589 0.51295888,0.51295888 0 0 1 0.51296,-0.5129589 0.51295888,0.51295888 0 0 1 0.51296,0.5129589 z M 437.54866,139.2475 a 0.73637062,0.73637062 0 0 1 -0.73637,0.73637 0.73637062,0.73637062 0 0 1 -0.73637,-0.73637 0.73637062,0.73637062 0 0 1 0.73637,-0.73637 0.73637062,0.73637062 0 0 1 0.73637,0.73637 z M 214.0599,247.58223 a 0.60805982,0.60805982 0 0 1 -0.60806,0.60806 0.60805982,0.60805982 0 0 1 -0.60806,-0.60806 0.60805982,0.60805982 0 0 1 0.60806,-0.60806 0.60805982,0.60805982 0 0 1 0.60806,0.60806 z M 67.307797,1.1162232 A 0.51295888,0.51295888 0 0 1 66.794838,1.6291821 0.51295888,0.51295888 0 0 1 66.281879,1.1162232 0.51295888,0.51295888 0 0 1 66.794838,0.60326433 0.51295888,0.51295888 0 0 1 67.307797,1.1162232 Z M 96.422879,112.20089 a 0.73637062,0.73637062 0 0 1 -0.736371,0.73637 0.73637062,0.73637062 0 0 1 -0.73637,-0.73637 0.73637062,0.73637062 0 0 1 0.73637,-0.73637 0.73637062,0.73637062 0 0 1 0.736371,0.73637 z m 380.480381,18.06968 a 0.60805982,0.60805982 0 0 1 -0.60806,0.60806 0.60805982,0.60805982 0 0 1 -0.60806,-0.60806 0.60805982,0.60805982 0 0 1 0.60806,-0.60806 0.60805982,0.60805982 0 0 1 0.60806,0.60806 z M 296.3066,32.530796 a 0.51295888,0.51295888 0 0 1 -0.51296,0.512959 0.51295888,0.51295888 0 0 1 -0.51296,-0.512959 0.51295888,0.51295888 0 0 1 0.51296,-0.512959 0.51295888,0.51295888 0 0 1 0.51296,0.512959 z M 169.38534,115.37983 a 0.73637062,0.73637062 0 0 1 -0.73637,0.73637 0.73637062,0.73637062 0 0 1 -0.73637,-0.73637 0.73637062,0.73637062 0 0 1 0.73637,-0.73637 0.73637062,0.73637062 0 0 1 0.73637,0.73637 z M 424.50348,67.079529 a 0.60805982,0.60805982 0 0 1 -0.60806,0.60806 0.60805982,0.60805982 0 0 1 -0.60806,-0.60806 0.60805982,0.60805982 0 0 1 0.60806,-0.60806 0.60805982,0.60805982 0 0 1 0.60806,0.60806 z M 379.20681,282.9736 a 0.51295888,0.51295888 0 0 1 -0.51296,0.51296 0.51295888,0.51295888 0 0 1 -0.51296,-0.51296 0.51295888,0.51295888 0 0 1 0.51296,-0.51296 0.51295888,0.51295888 0 0 1 0.51296,0.51296 z M 48.065964,79.909195 a 0.73637062,0.73637062 0 0 1 -0.73637,0.736371 0.73637062,0.73637062 0 0 1 -0.736371,-0.736371 0.73637062,0.73637062 0 0 1 0.736371,-0.736371 0.73637062,0.73637062 0 0 1 0.73637,0.736371 z M 278.7651,235.13788 a 0.60805982,0.60805982 0 0 1 -0.60806,0.60806 0.60805982,0.60805982 0 0 1 -0.60806,-0.60806 0.60805982,0.60805982 0 0 1 0.60806,-0.60806 0.60805982,0.60805982 0 0 1 0.60806,0.60806 z M 43.041222,260.24603 a 0.51295888,0.51295888 0 0 1 -0.512959,0.51296 0.51295888,0.51295888 0 0 1 -0.512959,-0.51296 0.51295888,0.51295888 0 0 1 0.512959,-0.51296 0.51295888,0.51295888 0 0 1 0.512959,0.51296 z M 179.42431,24.984657 a 0.73637062,0.73637062 0 0 1 -0.73637,0.736371 0.73637062,0.73637062 0 0 1 -0.73637,-0.736371 0.73637062,0.73637062 0 0 1 0.73637,-0.73637 0.73637062,0.73637062 0 0 1 0.73637,0.73637 z M 374.68963,163.1368 a 0.60805982,0.60805982 0 0 1 -0.60806,0.60805 0.60805982,0.60805982 0 0 1 -0.60806,-0.60805 0.60805982,0.60805982 0 0 1 0.60806,-0.60806 0.60805982,0.60805982 0 0 1 0.60806,0.60806 z M 487.33416,-2.243645 a 0.51295888,0.51295888 0 0 1 -0.51296,0.5129589 0.51295888,0.51295888 0 0 1 -0.51296,-0.5129589 0.51295888,0.51295888 0 0 1 0.51296,-0.5129588 0.51295888,0.51295888 0 0 1 0.51296,0.5129588 z M 142.71158,17.635756 a 0.73637062,0.73637062 0 0 1 -0.73638,0.73637 0.73637062,0.73637062 0 0 1 -0.73637,-0.73637 0.73637062,0.73637062 0 0 1 0.73637,-0.736371 0.73637062,0.73637062 0 0 1 0.73638,0.736371 z m -92.571305,10.19329 a 0.60805982,0.60805982 0 0 1 -0.60806,0.60806 0.60805982,0.60805982 0 0 1 -0.60806,-0.60806 0.60805982,0.60805982 0 0 1 0.60806,-0.60806 0.60805982,0.60805982 0 0 1 0.60806,0.60806 z m 334.245215,1.332211 a 0.51295888,0.51295888 0 0 1 -0.51296,0.512959 0.51295888,0.51295888 0 0 1 -0.51296,-0.512959 0.51295888,0.51295888 0 0 1 0.51296,-0.512959 0.51295888,0.51295888 0 0 1 0.51296,0.512959 z M 14.09968,110.42994 a 0.73637062,0.73637062 0 0 1 -0.736371,0.73637 0.73637062,0.73637062 0 0 1 -0.736371,-0.73637 0.73637062,0.73637062 0 0 1 0.736371,-0.73637 0.73637062,0.73637062 0 0 1 0.736371,0.73637 z M 427.55426,260.3175 a 0.60805982,0.60805982 0 0 1 -0.60806,0.60806 0.60805982,0.60805982 0 0 1 -0.60806,-0.60806 0.60805982,0.60805982 0 0 1 0.60806,-0.60805 0.60805982,0.60805982 0 0 1 0.60806,0.60805 z M 236.05301,120.48148 a 0.51295888,0.51295888 0 0 1 -0.51296,0.51296 0.51295888,0.51295888 0 0 1 -0.51295,-0.51296 0.51295888,0.51295888 0 0 1 0.51295,-0.51296 0.51295888,0.51295888 0 0 1 0.51296,0.51296 z M 203.67538,-1.0170727 a 0.73637062,0.73637062 0 0 1 -0.73637,0.73637065 0.73637062,0.73637062 0 0 1 -0.73637,-0.73637065 0.73637062,0.73637062 0 0 1 0.73637,-0.7363706 0.73637062,0.73637062 0 0 1 0.73637,0.7363706 z M 307.4212,63.434391 a 0.60805982,0.60805982 0 0 1 -0.60806,0.60806 0.60805982,0.60805982 0 0 1 -0.60806,-0.60806 0.60805982,0.60805982 0 0 1 0.60806,-0.60806 0.60805982,0.60805982 0 0 1 0.60806,0.60806 z M 150.18508,113.95109 a 0.51295888,0.51295888 0 0 1 -0.51296,0.51296 0.51295888,0.51295888 0 0 1 -0.51296,-0.51296 0.51295888,0.51295888 0 0 1 0.51296,-0.51296 0.51295888,0.51295888 0 0 1 0.51296,0.51296 z M 387.31392,92.791016 a 0.73637062,0.73637062 0 0 1 -0.73637,0.73637 0.73637062,0.73637062 0 0 1 -0.73638,-0.73637 0.73637062,0.73637062 0 0 1 0.73638,-0.736371 0.73637062,0.73637062 0 0 1 0.73637,0.736371 z M 159.04028,120.5176 a 0.60805982,0.60805982 0 0 1 -0.60806,0.60806 0.60805982,0.60805982 0 0 1 -0.60806,-0.60806 0.60805982,0.60805982 0 0 1 0.60806,-0.60806 0.60805982,0.60805982 0 0 1 0.60806,0.60806 z m -41.67172,64.76333 a 0.51295888,0.51295888 0 0 1 -0.51296,0.51296 0.51295888,0.51295888 0 0 1 -0.51296,-0.51296 0.51295888,0.51295888 0 0 1 0.51296,-0.51296 0.51295888,0.51295888 0 0 1 0.51296,0.51296 z m 15.63423,-6.35513 a 0.73637062,0.73637062 0 0 1 -0.73637,0.73637 0.73637062,0.73637062 0 0 1 -0.73637,-0.73637 0.73637062,0.73637062 0 0 1 0.73637,-0.73637 0.73637062,0.73637062 0 0 1 0.73637,0.73637 z m 164.57323,40.95028 a 0.60805982,0.60805982 0 0 1 -0.60806,0.60806 0.60805982,0.60805982 0 0 1 -0.60806,-0.60806 0.60805982,0.60805982 0 0 1 0.60806,-0.60806 0.60805982,0.60805982 0 0 1 0.60806,0.60806 z m 152.75246,57.2722 a 0.51295888,0.51295888 0 0 1 -0.51296,0.51296 0.51295888,0.51295888 0 0 1 -0.51296,-0.51296 0.51295888,0.51295888 0 0 1 0.51296,-0.51295 0.51295888,0.51295888 0 0 1 0.51296,0.51295 z M 5.4821096,268.45923 a 0.73637062,0.73637062 0 0 1 -0.7363706,0.73637 0.73637062,0.73637062 0 0 1 -0.7363706,-0.73637 0.73637062,0.73637062 0 0 1 0.7363706,-0.73637 0.73637062,0.73637062 0 0 1 0.7363706,0.73637 z M 112.84775,43.973297 a 0.60805982,0.60805982 0 0 1 -0.60806,0.60806 0.60805982,0.60805982 0 0 1 -0.60806,-0.60806 0.60805982,0.60805982 0 0 1 0.60806,-0.60806 0.60805982,0.60805982 0 0 1 0.60806,0.60806 z m 97.92227,-11.286358 a 0.51295888,0.51295888 0 0 1 -0.51296,0.512959 0.51295888,0.51295888 0 0 1 -0.51295,-0.512959 0.51295888,0.51295888 0 0 1 0.51295,-0.512959 0.51295888,0.51295888 0 0 1 0.51296,0.512959 z M 204.37738,135.3205 a 0.73637062,0.73637062 0 0 1 -0.73637,0.73637 0.73637062,0.73637062 0 0 1 -0.73637,-0.73637 0.73637062,0.73637062 0 0 1 0.73637,-0.73638 0.73637062,0.73637062 0 0 1 0.73637,0.73638 z M 388.93188,18.884861 a 0.60805982,0.60805982 0 0 1 -0.60806,0.60806 0.60805982,0.60805982 0 0 1 -0.60806,-0.60806 0.60805982,0.60805982 0 0 1 0.60806,-0.60806 0.60805982,0.60805982 0 0 1 0.60806,0.60806 z M 277.98708,147.01073 a 0.51295888,0.51295888 0 0 1 -0.51296,0.51296 0.51295888,0.51295888 0 0 1 -0.51296,-0.51296 0.51295888,0.51295888 0 0 1 0.51296,-0.51296 0.51295888,0.51295888 0 0 1 0.51296,0.51296 z m -165.59701,96.33973 a 0.73637062,0.73637062 0 0 1 -0.73637,0.73637 0.73637062,0.73637062 0 0 1 -0.73637,-0.73637 0.73637062,0.73637062 0 0 1 0.73637,-0.73637 0.73637062,0.73637062 0 0 1 0.73637,0.73637 z M 399.04281,63.784374 a 0.60805982,0.60805982 0 0 1 -0.60806,0.60806 0.60805982,0.60805982 0 0 1 -0.60806,-0.60806 0.60805982,0.60805982 0 0 1 0.60806,-0.60806 0.60805982,0.60805982 0 0 1 0.60806,0.60806 z M 57.944226,256.4064 a 0.51295888,0.51295888 0 0 1 -0.512959,0.51296 0.51295888,0.51295888 0 0 1 -0.512959,-0.51296 0.51295888,0.51295888 0 0 1 0.512959,-0.51296 0.51295888,0.51295888 0 0 1 0.512959,0.51296 z m 301.008244,0.49478 a 0.73637062,0.73637062 0 0 1 -0.73638,0.73637 0.73637062,0.73637062 0 0 1 -0.73637,-0.73637 0.73637062,0.73637062 0 0 1 0.73637,-0.73637 0.73637062,0.73637062 0 0 1 0.73638,0.73637 z m 31.51588,-144.03405 a 0.60805982,0.60805982 0 0 1 -0.60806,0.60806 0.60805982,0.60805982 0 0 1 -0.60806,-0.60806 0.60805982,0.60805982 0 0 1 0.60806,-0.60806 0.60805982,0.60805982 0 0 1 0.60806,0.60806 z M 233.54055,16.14312 a 0.51295888,0.51295888 0 0 1 -0.51296,0.512959 0.51295888,0.51295888 0 0 1 -0.51296,-0.512959 0.51295888,0.51295888 0 0 1 0.51296,-0.512959 0.51295888,0.51295888 0 0 1 0.51296,0.512959 z m 85.0017,161.72106 a 0.73637062,0.73637062 0 0 1 -0.73637,0.73637 0.73637062,0.73637062 0 0 1 -0.73637,-0.73637 0.73637062,0.73637062 0 0 1 0.73637,-0.73637 0.73637062,0.73637062 0 0 1 0.73637,0.73637 z m -185.80007,79.15953 a 0.60805982,0.60805982 0 0 1 -0.60806,0.60806 0.60805982,0.60805982 0 0 1 -0.60806,-0.60806 0.60805982,0.60805982 0 0 1 0.60806,-0.60806 0.60805982,0.60805982 0 0 1 0.60806,0.60806 z m 196.5592,11.83411 a 0.51295888,0.51295888 0 0 1 -0.51296,0.51296 0.51295888,0.51295888 0 0 1 -0.51296,-0.51296 0.51295888,0.51295888 0 0 1 0.51296,-0.51296 0.51295888,0.51295888 0 0 1 0.51296,0.51296 z m -14.96104,-165.7811 a 0.73637062,0.73637062 0 0 1 -0.73637,0.73637 0.73637062,0.73637062 0 0 1 -0.73637,-0.73637 0.73637062,0.73637062 0 0 1 0.73637,-0.73637 0.73637062,0.73637062 0 0 1 0.73637,0.73637 z M 11.041608,125.00836 a 0.60805982,0.60805982 0 0 1 -0.60806,0.60806 0.60805982,0.60805982 0 0 1 -0.6080598,-0.60806 0.60805982,0.60805982 0 0 1 0.6080598,-0.60806 0.60805982,0.60805982 0 0 1 0.60806,0.60806 z M 387.93706,281.39627 a 0.51295888,0.51295888 0 0 1 -0.51296,0.51296 0.51295888,0.51295888 0 0 1 -0.51296,-0.51296 0.51295888,0.51295888 0 0 1 0.51296,-0.51296 0.51295888,0.51295888 0 0 1 0.51296,0.51296 z M 279.52299,182.60265 a 0.73637062,0.73637062 0 0 1 -0.73637,0.73637 0.73637062,0.73637062 0 0 1 -0.73637,-0.73637 0.73637062,0.73637062 0 0 1 0.73637,-0.73637 0.73637062,0.73637062 0 0 1 0.73637,0.73637 z m 16.8593,56.55232 a 0.60805982,0.60805982 0 0 1 -0.60806,0.60806 0.60805982,0.60805982 0 0 1 -0.60806,-0.60806 0.60805982,0.60805982 0 0 1 0.60806,-0.60806 0.60805982,0.60805982 0 0 1 0.60806,0.60806 z M 26.993117,141.78838 a 0.51295888,0.51295888 0 0 1 -0.512959,0.51295 0.51295888,0.51295888 0 0 1 -0.512959,-0.51295 0.51295888,0.51295888 0 0 1 0.512959,-0.51296 0.51295888,0.51295888 0 0 1 0.512959,0.51296 z M 389.13371,64.229546 a 0.73637062,0.73637062 0 0 1 -0.73637,0.73637 0.73637062,0.73637062 0 0 1 -0.73637,-0.73637 0.73637062,0.73637062 0 0 1 0.73637,-0.736371 0.73637062,0.73637062 0 0 1 0.73637,0.736371 z M 181.65022,99.102051 a 0.60805982,0.60805982 0 0 1 -0.60806,0.60806 0.60805982,0.60805982 0 0 1 -0.60806,-0.60806 0.60805982,0.60805982 0 0 1 0.60806,-0.60806 0.60805982,0.60805982 0 0 1 0.60806,0.60806 z M 331.80928,41.983494 a 0.51295888,0.51295888 0 0 1 -0.51295,0.512959 0.51295888,0.51295888 0 0 1 -0.51296,-0.512959 0.51295888,0.51295888 0 0 1 0.51296,-0.512959 0.51295888,0.51295888 0 0 1 0.51295,0.512959 z m 109.87076,-5.270241 a 0.73637062,0.73637062 0 0 1 -0.73638,0.736371 0.73637062,0.73637062 0 0 1 -0.73637,-0.736371 0.73637062,0.73637062 0 0 1 0.73637,-0.736371 0.73637062,0.73637062 0 0 1 0.73638,0.736371 z M 75.697843,126.60294 a 0.60805982,0.60805982 0 0 1 -0.60806,0.60806 0.60805982,0.60805982 0 0 1 -0.60806,-0.60806 0.60805982,0.60805982 0 0 1 0.60806,-0.60806 0.60805982,0.60805982 0 0 1 0.60806,0.60806 z M 372.87868,18.234221 a 0.51295888,0.51295888 0 0 1 -0.51296,0.512958 0.51295888,0.51295888 0 0 1 -0.51296,-0.512958 0.51295888,0.51295888 0 0 1 0.51296,-0.512959 0.51295888,0.51295888 0 0 1 0.51296,0.512959 z M 197.3283,101.4473 a 0.73637062,0.73637062 0 0 1 -0.73637,0.73637 0.73637062,0.73637062 0 0 1 -0.73637,-0.73637 0.73637062,0.73637062 0 0 1 0.73637,-0.73637 0.73637062,0.73637062 0 0 1 0.73637,0.73637 z m -59.00039,116.94198 a 0.60805982,0.60805982 0 0 1 -0.60806,0.60806 0.60805982,0.60805982 0 0 1 -0.60806,-0.60806 0.60805982,0.60805982 0 0 1 0.60806,-0.60806 0.60805982,0.60805982 0 0 1 0.60806,0.60806 z m 106.03194,57.98459 a 0.51295888,0.51295888 0 0 1 -0.51296,0.51296 0.51295888,0.51295888 0 0 1 -0.51296,-0.51296 0.51295888,0.51295888 0 0 1 0.51296,-0.51296 0.51295888,0.51295888 0 0 1 0.51296,0.51296 z m -20.64795,2.65253 a 0.73637062,0.73637062 0 0 1 -0.73638,0.73637 0.73637062,0.73637062 0 0 1 -0.73637,-0.73637 0.73637062,0.73637062 0 0 1 0.73637,-0.73637 0.73637062,0.73637062 0 0 1 0.73638,0.73637 z m -198.451844,4.71667 a 0.60805982,0.60805982 0 0 1 -0.608059,0.60806 0.60805982,0.60805982 0 0 1 -0.60806,-0.60806 0.60805982,0.60805982 0 0 1 0.60806,-0.60806 0.60805982,0.60805982 0 0 1 0.608059,0.60806 z M 164.55137,26.360838 a 0.51295888,0.51295888 0 0 1 -0.51296,0.512959 0.51295888,0.51295888 0 0 1 -0.51296,-0.512959 0.51295888,0.51295888 0 0 1 0.51296,-0.512959 0.51295888,0.51295888 0 0 1 0.51296,0.512959 z M 509.62776,160.9514 a 0.73637062,0.73637062 0 0 1 -0.73637,0.73637 0.73637062,0.73637062 0 0 1 -0.73637,-0.73637 0.73637062,0.73637062 0 0 1 0.73637,-0.73637 0.73637062,0.73637062 0 0 1 0.73637,0.73637 z M 3.9717795,12.444272 a 0.60805982,0.60805982 0 0 1 -0.6080598,0.60806 0.60805982,0.60805982 0 0 1 -0.6080598,-0.60806 0.60805982,0.60805982 0 0 1 0.6080598,-0.60806 0.60805982,0.60805982 0 0 1 0.6080598,0.60806 z M 316.88738,171.3643 a 0.51295888,0.51295888 0 0 1 -0.51296,0.51296 0.51295888,0.51295888 0 0 1 -0.51296,-0.51296 0.51295888,0.51295888 0 0 1 0.51296,-0.51296 0.51295888,0.51295888 0 0 1 0.51296,0.51296 z M 343.248,47.519325 a 0.73637062,0.73637062 0 0 1 -0.73637,0.736371 0.73637062,0.73637062 0 0 1 -0.73637,-0.736371 0.73637062,0.73637062 0 0 1 0.73637,-0.73637 0.73637062,0.73637062 0 0 1 0.73637,0.73637 z M 131.53517,63.798939 a 0.60805982,0.60805982 0 0 1 -0.60806,0.60806 0.60805982,0.60805982 0 0 1 -0.60806,-0.60806 0.60805982,0.60805982 0 0 1 0.60806,-0.60806 0.60805982,0.60805982 0 0 1 0.60806,0.60806 z" /></g><circle
     style="opacity:0.287371;fill:url(#radialGradient17037);fill-opacity:1;stroke-width:0.122134;paint-order:stroke markers fill"
     id="path17029"
     cx="118.54923"
     cy="118.80892"
     r="116.20283" /><ellipse
     style="opacity:0.287371;fill:url(#radialGradient17037-2);fill-opacity:1;stroke-width:0.114417;paint-order:stroke markers fill"
     id="path17029-3"
     cx="398.0575"
     cy="184.07025"
     rx="112.54616"
     ry="105.2972" /><ellipse
     style="opacity:0.287371;fill:url(#radialGradient17123);fill-opacity:1;stroke-width:0.0644587;paint-order:stroke markers fill"
     id="path17091"
     cx="421.2421"
     cy="72.294754"
     rx="76.679955"
     ry="70.836868" /><ellipse
     style="opacity:0.287371;fill:url(#radialGradient17187);fill-opacity:1;stroke-width:0.145744;paint-order:stroke markers fill"
     id="path17177"
     cx="220.01517"
     cy="233.18268"
     rx="55.856506"
     ry="55.159691" /><path
     id="path5440"
     style="display:inline;opacity:0.202493;fill:none;fill-opacity:1;stroke:url(#linearGradient5451);stroke-width:0.303301;stroke-linecap:round;stroke-linejoin:round;stroke-dasharray:none;stroke-opacity:0.596078;paint-order:stroke markers fill"
     d="m 144.43755,231.484 -3.66234,12.27716 23.90306,-15.13251 m 0.11771,0.0266 -31.32307,-1.67812 10.9662,4.49562 z m -12.09873,-14.44503 12.65283,-3.91746 -0.62143,18.34341 z m -13.22312,-6.11546 13.35363,6.12097 -19.21007,12.81029" /><path
     id="path5440-0"
     style="display:inline;opacity:0.202493;fill:none;fill-opacity:1;stroke:url(#linearGradient17258);stroke-width:0.303301;stroke-linecap:round;stroke-linejoin:round;stroke-dasharray:none;stroke-opacity:0.596078;paint-order:stroke markers fill"
     d="m 373.11609,130.07084 -3.66234,12.27716 23.90306,-15.13251 m 0.11771,0.0266 -31.32307,-1.67812 10.9662,4.49562 z m -12.09873,-14.44503 12.65283,-3.91746 -0.62143,18.34341 z m -13.22312,-6.11546 13.35363,6.12097 -19.21007,12.81029" /><path
     id="path4545"
     style="display:inline;opacity:0.202493;fill:none;fill-opacity:1;stroke:url(#linearGradient4704);stroke-width:0.3175;stroke-linecap:round;stroke-linejoin:round;stroke-dasharray:none;stroke-opacity:0.596078;paint-order:stroke markers fill"
     d="m 247.553,40.628504 16.64857,-2.647176 m -45.46409,2.897069 28.81444,-0.249287 -4.70908,12.916567 -24.10451,-12.668567 16.83441,26.143517 10.81148,7.66319 13.59049,-9.388986 m -17.13366,-11.753405 -7.26762,13.479454 24.31528,-1.961903 m -0.0831,-22.870717 -16.97302,11.348281 16.96287,11.278542 z" /><path
     id="path4545-0"
     style="display:inline;opacity:0.202493;fill:none;fill-opacity:1;stroke:url(#linearGradient17303);stroke-width:0.3175;stroke-linecap:round;stroke-linejoin:round;stroke-dasharray:none;stroke-opacity:0.596078;paint-order:stroke markers fill"
     d="m 48.247875,116.41236 16.64857,-2.64718 m -45.46409,2.89707 28.81444,-0.24928 -4.70908,12.91656 -24.10451,-12.66856 16.83441,26.14351 10.81148,7.66319 13.59049,-9.38898 m -17.13366,-11.75341 -7.26762,13.47946 24.31528,-1.96191 m -0.0831,-22.87071 -16.97302,11.34828 16.96287,11.27854 z" /></svg>
