<?xml version="1.0" encoding="UTF-8" standalone="no"?>
<!-- Created with Inkscape (http://www.inkscape.org/) -->

<svg
   width="7.4589133mm"
   height="8.1280527mm"
   viewBox="0 0 7.4589134 8.1280528"
   version="1.1"
   id="svg21"
   xmlns:xlink="http://www.w3.org/1999/xlink"
   xmlns="http://www.w3.org/2000/svg"
   xmlns:svg="http://www.w3.org/2000/svg">
  <defs
     id="defs18">
    <linearGradient
       id="linearGradient17478">
      <stop
         style="stop-color:#238cb2;stop-opacity:1;"
         offset="0"
         id="stop17474" />
      <stop
         style="stop-color:#0e6887;stop-opacity:1;"
         offset="1"
         id="stop17476" />
    </linearGradient>
    <linearGradient
       xlink:href="#linearGradient17478"
       id="linearGradient17480"
       x1="77.937965"
       y1="128.93855"
       x2="98.420181"
       y2="128.93855"
       gradientUnits="userSpaceOnUse" />
    <linearGradient
       xlink:href="#linearGradient17478"
       id="linearGradient24971"
       gradientUnits="userSpaceOnUse"
       x1="77.937965"
       y1="128.93855"
       x2="98.420181"
       y2="128.93855" />
  </defs>
  <g
     id="layer4-3"
     transform="matrix(0.36416528,0,0,0.36416528,-28.382301,-42.89092)"
     style="fill:url(#linearGradient17480);fill-opacity:1">
    <path
       id="path17486-7-5"
       style="color:#000000;fill:url(#linearGradient24971);fill-opacity:1;stroke:none;stroke-width:1.60632;stroke-linecap:round;stroke-linejoin:round;-inkscape-stroke:none;paint-order:markers fill stroke"
       d="m 88.179331,117.77872 a 0.80324033,0.80324033 0 0 0 -0.60358,0.27337 c -0.96441,1.09645 -2.12576,2.17244 -3.47059,2.71715 -1.34481,0.54469 -2.87016,0.62834 -4.87102,-0.36329 a 0.80324033,0.80324033 0 0 0 -1.15858,0.68523 c -0.1376,3.35163 -0.90653,9.74187 3.49798,14.83785 1.97175,2.28133 4.32877,3.2897 6.29729,4.10776 a 0.80324033,0.80324033 0 0 0 0.61701,0 c 1.96854,-0.81807 4.325,-1.82642 6.29678,-4.10776 4.40449,-5.09598 3.63557,-11.48624 3.49797,-14.83785 a 0.80324033,0.80324033 0 0 0 -1.16013,-0.68523 c -2.00088,0.99163 -3.52618,0.90798 -4.87102,0.36329 -1.34483,-0.54471 -2.5041,-1.6207 -3.46853,-2.71715 a 0.80324033,0.80324033 0 0 0 -0.60358,-0.27337 z m 2.47324,7.24452 a 0.82217224,0.82217224 0 0 1 0.48782,0.12867 l 4.83795,3.09387 a 0.82217224,0.82217224 0 0 1 -0.002,1.38648 l -4.84776,3.08198 a 0.82209003,0.82209003 0 0 1 -1.13482,-0.25166 0.82209003,0.82209003 0 0 1 0.25218,-1.13482 l 3.76153,-2.39106 -3.13469,-2.00557 -4.5744,5.62085 a 0.82217224,0.82217224 0 0 1 -1.08004,0.17415 l -4.84001,-3.09594 a 0.82217224,0.82217224 0 0 1 0.002,-1.38441 l 4.84776,-3.08405 a 0.82209003,0.82209003 0 0 1 1.13482,0.25373 0.82209003,0.82209003 0 0 1 -0.25218,1.13482 l -3.75946,2.39055 3.13469,2.00608 4.5744,-5.62343 a 0.82217224,0.82217224 0 0 1 0.59221,-0.30024 z" />
  </g>
</svg>
